<svg xmlns="http://www.w3.org/2000/svg" width="64.291" height="99.23" viewBox="0 0 64.291 99.23">
  <path d="M32.229,7.727c.286,0,.571,0,.856.012a7.882,7.882,0,0,0,13.342,3.288A32.177,32.177,0,0,1,61.3,53.642l0,0-.006.014q-.466.98-1,1.926L56.66,62.614c-9.321,18.238-24.4,36.616-24.4,36.616S16.887,81.052,7.569,62.614H9.487l0,0H42.291l.8-3.727H41.426c-1.332,0-4.925-.133-4.925-2.994a7.525,7.525,0,0,1,.266-2L44.82,16.027H37.034c-4.259,4.125-8.119,6.521-14.241,7.054l-1,4.791a18.322,18.322,0,0,0,9.183-1.93L25.189,53.225l-.029.135-.031.133-.029.133-.031.132-.031.132-.032.13-.012.051-.018.078-.034.129-.034.127-.035.126-.037.126-.028.087-.011.035-.04.122-.04.121-.038.11,0,.011-.044.119-.046.118-.049.116-.051.115-.052.113-.055.112-.058.11-.021.04L24.293,56l0,0-.054.093,0,.008,0,.008-.057.092-.012.018-.06.092-.006.009,0,0-.029.043-.04.057-.006.009,0,0,0,0,0,0,0,0,0,.006,0,0,0,0v0l0,0-.011.014,0,.006,0,0,0,0,0,0,0,0,0,0,0,0,0,0,0,0,0,0,0,0,0,0,0,0,0,0,0,0,0,0,0,0h0l-.008.011,0,0,0,0,0,0,0,0,0,0,0,0,0,0,0,0,0,0,0,0,0,0,0,0,0,0,0,0,0,0,0,0,0,0-.024.029,0,0,0,0,0,0,0,0,0,0,0,0,0,0,0,0,0,0,0,0,0,0,0,0,0,.006-.015.018-.078.084-.011.011-.09.093-.095.092,0,0-.023.021-.023.021-.023.021-.023.021,0,0-.018.015-.024.021-.024.021-.024.02-.012.011-.012.009-.024.02-.024.02-.026.02-.02.017,0,0-.026.02-.026.02-.028.02-.052.038-.028.02c-.064.046-.129.089-.2.132l-.029.018-.031.018-.029.018-.06.035-.031.018-.031.018-.093.054-.032.017-.032.017-.032.017-.032.017-.032.017-.034.017-.028.014-.006,0-.034.015-.034.017-.035.015-.07.032-.035.015-.035.015L22,57.986l-.015.008L21.965,58l-.037.015-.037.015-.038.015-.038.015-.038.015-.038.015-.038.015-.038.014h0l-.038.014-.04.014-.04.014-.04.014-.012,0-.175.058h0l-.021.006-.021.006-.021.006-.021.006-.021.006-.021.006-.021.006-.021.006-.014,0-.008,0L21.1,58.3l-.021.006-.021.006-.021.006-.021.006-.021.006-.023.006-.021.006,0,0-.018,0-.023.006-.023.006-.021.006-.023.006-.023.006-.023.006-.023.006-.018,0h0l-.023.006-.023.006-.023,0-.023.006-.023,0-.023.006-.024,0-.023.006-.011,0-.014,0-.024.006-.024,0-.024,0-.024,0-.024,0-.024,0-.024,0-.024.006h0l-.024,0-.024,0-.024,0-.024,0-.024,0-.024,0-.026,0-.024,0-.015,0-.009,0-.026,0-.026,0-.026.006-.026,0-.026,0-.026,0-.026,0-.026,0-.006,0-.02,0-.026,0-.028,0-.026,0-.008,0-.2.032-.023,0-.024,0-.115.017-.243.034-.161.02-.028,0-.012,0-.012,0-.012,0-.024,0h0l-.024,0-.012,0-.012,0-.024,0-.012,0-.012,0-.012,0-.012,0-.012,0-.012,0-.012,0-.012,0-.012,0-.037,0-.012,0-.077.008-.012,0-.012,0-.012,0-.014,0-.012,0-.012,0-.012,0-.014,0-.012,0-.012,0-.012,0-.014,0-.012,0-.012,0-.014,0-.012,0-.008,0H18.42l-.012,0-.012,0-.014,0h-.012l-.014,0-.014,0-.012,0-.014,0-.012,0-.014,0h-.012l-.014,0-.014,0-.012,0-.014,0H18.21l-.014,0-.044,0-.282.02-.026,0-.035,0h-.436l-.1,0h-.021l-.095,0h-.7l-.158,0h-1.35l-.164,0H6.3A32.153,32.153,0,0,1,32.243,7.677ZM40.682,0a5.633,5.633,0,1,1-5.633,5.632A5.633,5.633,0,0,1,40.682,0Z" transform="translate(0)" fill="#e5097f" fill-rule="evenodd"/>
</svg>
