<svg xmlns="http://www.w3.org/2000/svg" viewBox="0 0 43.789 55.655">
  <g transform="translate(-5.567)">
    <g transform="translate(5.567)">
      <path d="M37.6,1.124,37.539,0,36.42.12C36.31.132,25.5,1.435,24.754,13.527l-.075,1.211,1.211-.082C26.013,14.647,38.263,13.67,37.6,1.124Zm-2.111,1.35c-.2,7.287-5.873,9.314-8.475,9.86A11.26,11.26,0,0,1,35.487,2.474Z" transform="translate(-4.313)"/>
      <path d="M49.276,39.109l-.681-.221A9.85,9.85,0,0,1,47.334,20.6l1.036-.5-.578-.994a12.545,12.545,0,0,0-7.441-5.452c-3.873-.991-8.227-.114-12.946,2.608-2-1.213-8.635-4.708-13.915-1.2C12.456,15.625,1.5,22.188,7.2,39.9c.167.4,4.143,9.711,8.848,13.2,1.269,1.213,4.515,2.728,8.225.2.643-.265,4.942-1.92,7.67.018a8.675,8.675,0,0,0,4.623,1.471,5.544,5.544,0,0,0,4.112-1.727,33.1,33.1,0,0,0,8.6-12.668l.08-.217ZM39.257,51.469l-.082.078c-2.337,2.454-5.88.107-6.011.019a7.684,7.684,0,0,0-4.523-1.314,14.392,14.392,0,0,0-5.32,1.134l-.174.1c-3.217,2.245-5.42.27-5.653.045l-.126-.108C13.114,48.317,9.2,39.158,9.2,39.155c-5.337-16.59,4.887-22.016,5.322-22.237l.117-.069c4.952-3.325,12.07,1.488,12.141,1.536l.568.39.588-.355c4.433-2.68,8.433-3.591,11.889-2.706a10.5,10.5,0,0,1,5.488,3.561,11.973,11.973,0,0,0,1.621,21.266A31.568,31.568,0,0,1,39.257,51.469Z" transform="translate(-5.567 0.87)"/>
    </g>
  </g>
</svg>
