<svg xmlns="http://www.w3.org/2000/svg" viewBox="0 0 46.023 55.227">
  <g id="transfer" transform="translate(-2)">
    <path d="M33.065,55.227H7.753A5.761,5.761,0,0,1,2,49.474V5.753A5.761,5.761,0,0,1,7.753,0H33.065a5.761,5.761,0,0,1,5.753,5.753v9.2a1.151,1.151,0,1,1-2.3,0v-9.2A3.456,3.456,0,0,0,33.065,2.3H7.753A3.456,3.456,0,0,0,4.3,5.753V49.474a3.456,3.456,0,0,0,3.452,3.452H33.065a3.456,3.456,0,0,0,3.452-3.452v-9.2a1.151,1.151,0,1,1,2.3,0v9.2A5.761,5.761,0,0,1,33.065,55.227Z" transform="translate(0)"/>
    <path d="M21.758,6.9h-9.2A3.456,3.456,0,0,1,9.1,3.452,1.151,1.151,0,0,0,7.952,2.3h-2.3a1.151,1.151,0,1,1,0-2.3h2.3A3.456,3.456,0,0,1,11.4,3.452,1.151,1.151,0,0,0,12.554,4.6h9.2a1.151,1.151,0,0,0,1.151-1.151A3.456,3.456,0,0,1,26.361,0h2.3a1.151,1.151,0,1,1,0,2.3h-2.3A1.151,1.151,0,0,0,25.21,3.452,3.456,3.456,0,0,1,21.758,6.9Z" transform="translate(3.253)"/>
    <path d="M17.753,18.5a1.156,1.156,0,0,1-.815-.336l-4.6-4.6a1.151,1.151,0,0,1,0-1.627l4.6-4.6a1.15,1.15,0,0,1,1.627,1.627l-3.788,3.788,3.788,3.788a1.151,1.151,0,0,1,0,1.627A1.139,1.139,0,0,1,17.753,18.5Z" transform="translate(13.011 9.109)"/>
    <path d="M33.535,11.3H13.4a1.151,1.151,0,0,1,0-2.3H33.535a1.151,1.151,0,0,1,0,2.3Z" transform="translate(13.337 11.71)"/>
    <path d="M20.151,23.5a1.149,1.149,0,0,1-.815-1.963l3.788-3.788-3.788-3.788a1.15,1.15,0,0,1,1.627-1.627l4.6,4.6a1.151,1.151,0,0,1,0,1.627l-4.6,4.6A1.154,1.154,0,0,1,20.151,23.5Z" transform="translate(22.119 15.616)"/>
    <path d="M33.285,16.3H13.151a1.151,1.151,0,1,1,0-2.3H33.285a1.151,1.151,0,0,1,0,2.3Z" transform="translate(13.011 18.216)"/>
  </g>
</svg>
