<svg xmlns="http://www.w3.org/2000/svg" viewBox="0 0 55.407 55.288">
  <g transform="translate(0 -0.518)">
    <g transform="translate(0 0.518)">
      <g transform="translate(0)">
        <path d="M54.533,9.643,52.87,1.262A.924.924,0,0,0,51.785.536h0L6.031,9.633H4.617a.923.923,0,0,0-.923.923v4.71A4.606,4.606,0,0,0,0,19.791v31.4a4.623,4.623,0,0,0,4.617,4.617H54.484a.923.923,0,0,0,.923-.923V10.557A.923.923,0,0,0,54.533,9.643Zm-3.3-7.115,1.411,7.105H15.5ZM2.647,17.832l0,0a2.824,2.824,0,0,1,1.042-.656v5.213c-.02-.006-.041-.011-.061-.018a2.716,2.716,0,0,1-.346-.167,1.666,1.666,0,0,1-.168-.092,2.85,2.85,0,0,1-.462-.362A2.778,2.778,0,0,1,2.647,17.832ZM53.56,42.878H40.632V35.49H53.56Zm0-9.235H39.708a.923.923,0,0,0-.923.923V43.8a.923.923,0,0,0,.923.923H53.56v9.235H4.617a2.77,2.77,0,0,1-2.77-2.77v-27.7c.042.031.088.053.13.082.081.057.165.106.249.158a4.643,4.643,0,0,0,.482.257c.092.042.185.082.277.117a4.449,4.449,0,0,0,.544.164c.086.021.169.048.256.064a4.616,4.616,0,0,0,.832.081H53.56ZM23.152,22.562a6.464,6.464,0,0,1,12.8,0Zm30.408,0H37.807a8.311,8.311,0,0,0-16.513,0H5.541V11.48H53.56Z" transform="translate(0 -0.518)" fill="#131313"/>
      </g>
    </g>
    <g transform="translate(45.249 13.327)">
      <g>
        <path d="M397.541,111.482H392v1.847h4.617v4.617h1.847v-5.541A.923.923,0,0,0,397.541,111.482Z" transform="translate(-392 -111.482)" fill="#131313"/>
      </g>
    </g>
    <g transform="translate(7.388 13.327)">
      <g>
        <path d="M64.923,111.482a.923.923,0,0,0-.923.923v5.541h1.847v-4.617h4.617v-1.847Z" transform="translate(-64 -111.482)" fill="#131313"/>
      </g>
    </g>
    <g transform="translate(42.479 38.26)">
      <g>
        <rect width="1.847" height="1.847" fill="#131313"/>
      </g>
    </g>
  </g>
</svg>
