<svg xmlns="http://www.w3.org/2000/svg" viewBox="0 0 1487.39 213.9">
  <defs>
    <style>
      .cls-1{fill:none;stroke:#fff;stroke-linejoin:round;stroke-width:10px;}.cls-2{fill:#fff;}
    </style>
  </defs>
  <path class="cls-1" d="M223.3,208.9h-40l-20.73-51H65.48L45,208.9H5L81,27.75q5.48-13,12.53-17.85T114.15,5q13,0,20.31,5t12.81,17.71Zm-70.56-78L119.91,48.78q-3.45-8.36-5.76-8.36t-5.76,8.36L75.27,130.86Z"/>
  <path class="cls-1" d="M395.82,157.06q0,24.48-10.08,37.44-11.24,14.4-36,14.4H225.9V178.66H337.64q19,0,19-21.88,0-16.71-19.59-22.76L257.58,109Q242,104.07,233.67,94,223.31,81.61,223.3,56q0-25.35,13-37.44Q248.37,7.31,269.38,7.3H385.45V37.54H282.34q-10.93,0-16,4.76t-5,15.4q0,16.71,18.72,22.76l73.73,23.32q20.44,6.63,28.8,14.4,13.24,12.67,13.25,38.88Z"/>
  <path class="cls-1" d="M600.87,153.61q0,29.37-11.52,42.33a35.8,35.8,0,0,1-18.14,11.24q-6.06,1.73-18.72,1.72H456q-11.52,0-14.4-.57a21.83,21.83,0,0,1-13-7.49q-6.91-7.77-6.92-20.45v-144q0-13.25,6.63-21.17t21-7.92h99.07q24.78,0,36.58,12.1,12.68,13,12.67,43.2,0,21.6-9.5,32.83-8.07,9.51-19,10.37V107q13.53,1.15,22.18,10.66,9.5,10.36,9.5,36ZM558.53,64.33q0-15.27-6.62-21.6-5.48-5.19-18.72-5.19H471q-6.62,0-8.93,2.6t-2.3,8.64V92h73.73q15.25,0,20.73-7.2,4.32-5.76,4.32-20.45ZM561.7,151q0-14.4-4.32-20.45-5.76-8.35-20.45-8.35H459.75v41.47q0,9.21,2.59,12.09t12.1,2.88h59.9q16.13,0,22.18-7.2Q561.7,165.13,561.7,151Z"/>
  <path class="cls-2" d="M828.73,157.06q0,24.48-10.08,37.44-11.24,14.4-36,14.4H658.81V178.66H770.55q19,0,19-21.88,0-16.71-19.58-22.76L690.49,109q-15.56-4.91-23.9-15-10.38-12.37-10.37-38,0-25.35,13-37.44Q681.27,7.31,702.3,7.3H818.36V37.54H715.26q-10.95,0-16,4.76t-5,15.4q0,16.71,18.72,22.76l73.73,23.32q20.45,6.63,28.8,14.4Q828.72,130.85,828.73,157.06Z"/>
  <path class="cls-2" d="M935.58,208.9h-21q-27.07,0-40.9-11.23Q858.39,185,858.4,159.08V82.18h-21V56.26h21V7.3h33.69v49h42.63V82.18H892.09v61.35q0,12.67.87,17.28,1.72,10.37,8.06,15.55,8.07,6.63,26.21,6.62h8.35Z"/>
  <path class="cls-2" d="M1088.22,181.54q0,15-8.06,21.6-6.92,5.76-23.91,5.76H1002.4q-26.5,0-39.75-11.52-15.55-13.53-15.55-44.92V56.26h33.7v90.15q0,19,5.76,26.78,7.2,9.8,27.36,9.79h27.93q6.63,0,9.65-3t3-9.36V56.26h33.7V181.54Z"/>
  <path class="cls-2" d="M1249.21,182.12q0,12.67-4.61,19-5.76,7.77-21,7.77h-60.19q-36,0-48.68-30.24-7.49-17.85-7.48-48.38Q1107.23,96,1119,79q15.84-22.75,51.27-22.76h45.21V7.3h33.7V182.12Zm-33.7-12.1V82.18h-38.59q-19.87,0-28.22,13.54-6.63,10.65-6.63,35.71,0,24.76,4,34.27,7.48,17.28,30.81,17.28H1204c4.23,0,7.2-.76,8.93-2.3S1215.51,175.59,1215.51,170Z"/>
  <path class="cls-2" d="M1306,34.09h-33.7V7.3H1306Zm0,174.81h-33.7V56.26H1306Z"/>
  <path class="cls-2" d="M1487.39,132q0,43.77-19.58,62.21-17.58,16.41-61.64,16.41-43.77,0-61.63-16.41Q1325,176.36,1325,133.16q0-44.35,19.58-62.5,17.28-16.12,61.63-16.12t61.64,16.12Q1487.38,88.81,1487.39,132Zm-34.85.86q0-29.37-9.79-40.32-10.95-12.09-36.58-12.09-26.49,0-36.86,12.09-9.51,11-9.5,40.32,0,27.94,9.79,39.17,10.94,12.68,36.57,12.67,25.07,0,36.29-12.67,10.08-11.23,10.08-39.17Z"/>
</svg>
