<svg xmlns="http://www.w3.org/2000/svg" width="35.501" height="26.626" viewBox="0 0 35.501 26.626">
  <path d="M32.173,59.882H3.328A3.332,3.332,0,0,0,0,63.21V83.18a3.332,3.332,0,0,0,3.328,3.328H32.173A3.332,3.332,0,0,0,35.5,83.18V63.21A3.332,3.332,0,0,0,32.173,59.882Zm0,2.219a1.1,1.1,0,0,1,.425.086L17.751,75.055,2.9,62.187a1.1,1.1,0,0,1,.425-.086Zm0,22.188H3.328a1.11,1.11,0,0,1-1.109-1.109V64.531l14.8,12.831a1.111,1.111,0,0,0,1.454,0l14.8-12.831V83.18A1.11,1.11,0,0,1,32.173,84.289Z" transform="translate(0 -59.882)" fill="#ec008c"/>
</svg>
