<svg xmlns="http://www.w3.org/2000/svg" width="31.842" height="31.995" viewBox="0 0 31.842 31.995">
  <path d="M27.453,4.65A15.858,15.858,0,0,0,2.5,23.78L.25,32l8.4-2.2a15.838,15.838,0,0,0,7.576,1.93h.007A15.861,15.861,0,0,0,27.453,4.65ZM16.237,29.043h-.005a13.161,13.161,0,0,1-6.707-1.837l-.481-.286L4.057,28.229l1.331-4.863-.313-.5a13.178,13.178,0,1,1,11.163,6.175Zm7.228-9.869c-.4-.2-2.344-1.156-2.707-1.289s-.627-.2-.891.2-1.023,1.289-1.254,1.553-.462.3-.858.1a10.82,10.82,0,0,1-3.186-1.966,11.95,11.95,0,0,1-2.2-2.744c-.231-.4,0-.591.174-.808a11.206,11.206,0,0,0,.99-1.355.729.729,0,0,0-.033-.694c-.1-.2-.891-2.148-1.221-2.942-.322-.772-.648-.668-.891-.68s-.5-.014-.759-.014a1.455,1.455,0,0,0-1.056.5,4.443,4.443,0,0,0-1.386,3.3A7.706,7.706,0,0,0,9.8,16.43c.2.264,2.794,4.266,6.767,5.981a22.675,22.675,0,0,0,2.258.835,5.431,5.431,0,0,0,2.5.157,4.081,4.081,0,0,0,2.674-1.884,3.31,3.31,0,0,0,.231-1.884c-.1-.165-.363-.264-.759-.463Zm0,0" transform="translate(-0.25)" fill="#ec008c" fill-rule="evenodd"/>
</svg>
