<?xml version="1.0" encoding="UTF-8" standalone="no"?>
<!DOCTYPE svg PUBLIC "-//W3C//DTD SVG 1.1//EN" "http://www.w3.org/Graphics/SVG/1.1/DTD/svg11.dtd">
<svg width="100%" height="100%" viewBox="0 0 36 54" version="1.1" xmlns="http://www.w3.org/2000/svg" xmlns:xlink="http://www.w3.org/1999/xlink" xml:space="preserve" xmlns:serif="http://www.serif.com/" style="fill-rule:evenodd;clip-rule:evenodd;stroke-linejoin:round;stroke-miterlimit:2;">
    <rect x="0" y="0" width="36" height="54" style="fill:none;fill-rule:nonzero;"/>
    <path d="M14.079,49.5C13.945,49.343 13.823,49.176 13.715,49L3.761,49C3.317,49.017 2.872,48.979 2.437,48.887C2.102,48.807 1.796,48.632 1.557,48.384C1.32,48.129 1.158,47.812 1.091,47.47C1.014,47.02 0.983,46.564 1,46.108L1,14.879C0.979,14.4 1.016,13.919 1.111,13.449C1.194,13.088 1.387,12.762 1.663,12.515C1.806,12.389 1.968,12.287 2.143,12.212C2.317,12.14 2.499,12.09 2.685,12.062C2.92,12.026 3.158,12.007 3.396,12.005C3.554,12.001 3.738,12 3.914,12L5.197,12C5.247,11.998 5.296,12 5.345,12.008C5.445,12.02 5.524,12.098 5.539,12.198C5.55,12.25 5.549,12.561 5.551,12.608C5.551,12.719 5.559,12.83 5.576,12.94C5.595,13.048 5.632,13.153 5.686,13.249C5.773,13.4 5.898,13.527 6.05,13.614C6.168,13.681 6.298,13.724 6.432,13.739C6.568,13.753 6.705,13.757 6.841,13.752L12.266,13.752C12.517,13.779 12.77,13.738 13,13.633L13,11L3.936,11C3.745,11 3.544,11.001 3.372,11.005C3.088,11.009 2.805,11.032 2.525,11.075C2.259,11.116 1.999,11.189 1.751,11.293C1.477,11.409 1.223,11.569 1,11.766C0.575,12.146 0.275,12.647 0.141,13.201C0.024,13.757 -0.023,14.325 -0,14.893L0,46.108C-0.018,46.636 0.02,47.165 0.114,47.685C0.221,48.205 0.469,48.686 0.833,49.073C1.2,49.455 1.669,49.726 2.184,49.854C2.7,49.969 3.228,50.018 3.757,50C3.849,50 4.126,50 4.222,50L14.58,50C14.442,49.887 14.311,49.766 14.189,49.636C14.149,49.593 14.117,49.544 14.079,49.5ZM6.698,13.036C6.546,13.047 6.4,12.972 6.322,12.841C6.256,12.719 6.256,12.571 6.322,12.448C6.401,12.318 6.546,12.242 6.698,12.253C6.899,12.272 7.055,12.443 7.055,12.645C7.055,12.847 6.899,13.018 6.698,13.036L6.698,13.036ZM7.936,11.376L11.023,11.376C11.092,11.377 11.148,11.432 11.148,11.501L11.148,11.52C11.148,11.589 11.092,11.645 11.023,11.645L7.936,11.645C7.868,11.645 7.811,11.589 7.811,11.52L7.811,11.5C7.812,11.432 7.868,11.376 7.936,11.376L7.936,11.376ZM36,10.392C36.02,9.795 35.978,9.199 35.874,8.612C35.757,8.027 35.483,7.486 35.08,7.046C34.677,6.616 34.158,6.31 33.587,6.165C33.017,6.036 32.433,5.981 31.848,6.001C31.738,6 31.627,6 31.515,6L18.351,6C18.14,6 17.918,6.001 17.727,6.006C17.413,6.01 17.1,6.036 16.791,6.084C16.496,6.13 16.209,6.213 15.936,6.33C15.632,6.462 15.351,6.642 15.106,6.864C14.634,7.296 14.303,7.861 14.157,8.483C14.027,9.111 13.974,9.752 14,10.392L14,45.609C13.98,46.205 14.022,46.801 14.126,47.388C14.243,47.973 14.517,48.515 14.92,48.954C14.936,48.971 14.954,48.984 14.97,49C15.154,49.19 15.363,49.355 15.59,49.491C15.847,49.643 16.124,49.759 16.414,49.836C16.507,49.861 16.603,49.863 16.697,49.881C17.177,49.965 17.664,50.005 18.152,50C18.321,50.001 18.495,50.001 18.666,50L31.704,50C32.3,50.023 32.896,49.976 33.481,49.862C34.069,49.732 34.607,49.435 35.03,49.007C35.451,48.568 35.741,48.02 35.865,47.424C35.977,46.826 36.022,46.217 36,45.609L36,10.392ZM23.341,6.512C23.341,6.44 23.4,6.382 23.471,6.382L26.53,6.382C26.601,6.382 26.66,6.44 26.66,6.512L26.66,6.532C26.66,6.603 26.601,6.662 26.53,6.662L23.471,6.662C23.399,6.662 23.341,6.603 23.341,6.532L23.341,6.512ZM21.77,7.345C21.852,7.208 22.005,7.129 22.163,7.141C22.374,7.16 22.537,7.339 22.537,7.55C22.537,7.761 22.374,7.94 22.163,7.959C22.004,7.971 21.852,7.892 21.77,7.755C21.7,7.627 21.7,7.472 21.77,7.344L21.77,7.345ZM35,10.766L35,45.628C35.02,46.156 34.983,46.684 34.89,47.204C34.807,47.619 34.607,48.002 34.315,48.307C34.024,48.601 33.654,48.803 33.251,48.889C32.741,48.983 32.222,49.021 31.704,49L18.156,49C17.912,48.999 17.693,48.993 17.479,48.981C17.207,48.972 16.936,48.934 16.671,48.87C16.657,48.866 16.646,48.858 16.632,48.854C16.258,48.754 15.919,48.553 15.652,48.272C15.372,47.965 15.182,47.586 15.104,47.177C15.016,46.659 14.981,46.134 15,45.609L15,10.376C14.977,9.823 15.019,9.269 15.127,8.726C15.225,8.296 15.452,7.906 15.776,7.606C15.941,7.457 16.13,7.336 16.335,7.247C16.533,7.163 16.742,7.104 16.955,7.071C17.219,7.03 17.485,7.008 17.753,7.005C17.935,7.001 18.149,7 18.352,7L20.617,7C20.672,6.998 20.727,7.001 20.782,7.009C20.893,7.023 20.982,7.11 20.998,7.22C21.008,7.275 21.012,7.33 21.011,7.385C21.011,7.509 21.021,7.633 21.04,7.755C21.061,7.876 21.102,7.993 21.163,8.1C21.26,8.269 21.4,8.41 21.569,8.508C21.7,8.583 21.845,8.63 21.996,8.648C22.147,8.663 22.299,8.667 22.452,8.662L27.549,8.662C27.701,8.667 27.853,8.663 28.005,8.648C28.155,8.63 28.3,8.583 28.432,8.508C28.601,8.41 28.74,8.269 28.837,8.1C28.898,7.993 28.94,7.877 28.961,7.755C28.979,7.633 28.989,7.509 28.989,7.385C28.988,7.33 28.993,7.275 29.002,7.221C29.019,7.11 29.107,7.023 29.219,7.009C29.273,7.001 29.328,6.998 29.383,7L31.844,7C32.342,6.98 32.841,7.024 33.329,7.13C33.719,7.228 34.073,7.435 34.349,7.728C34.629,8.035 34.819,8.414 34.896,8.823C34.985,9.341 35.02,9.867 35,10.392C35,10.46 35,10.704 35,10.767Z" style="fill:rgb(245,245,247);fill-rule:nonzero;"/>
</svg>
