<?xml version="1.0" encoding="UTF-8" standalone="no"?>
<!DOCTYPE svg PUBLIC "-//W3C//DTD SVG 1.1//EN" "http://www.w3.org/Graphics/SVG/1.1/DTD/svg11.dtd">
<svg width="100%" height="100%" viewBox="0 0 38 54" version="1.1" xmlns="http://www.w3.org/2000/svg" xmlns:xlink="http://www.w3.org/1999/xlink" xml:space="preserve" xmlns:serif="http://www.serif.com/" style="fill-rule:evenodd;clip-rule:evenodd;stroke-linejoin:round;stroke-miterlimit:2;">
    <rect x="0" y="0" width="38" height="54" style="fill:none;fill-rule:nonzero;"/>
    <path d="M38,6.783C38.022,6.134 37.976,5.484 37.862,4.845C37.734,4.207 37.433,3.617 36.992,3.14C36.549,2.671 35.981,2.337 35.356,2.179C34.732,2.039 34.092,1.979 33.452,2.001C33.334,2 33.216,2 33.096,2L19.764,2C19.533,2 19.29,2.001 19.082,2.006C18.738,2.011 18.395,2.039 18.056,2.092C17.734,2.142 17.419,2.232 17.119,2.36C16.787,2.503 16.48,2.699 16.21,2.941C15.694,3.411 15.332,4.025 15.171,4.705C15.073,5.13 15.02,5.564 15.013,6C15.007,6.167 15.003,6.334 15.002,6.501C15,6.759 15,7.015 15,7.273L15,45.218C14.978,45.867 15.024,46.516 15.138,47.155C15.266,47.793 15.567,48.383 16.008,48.861C16.056,48.911 16.109,48.953 16.159,49C16.365,49.195 16.595,49.363 16.844,49.5C17.096,49.639 17.365,49.746 17.644,49.821C17.975,49.905 18.314,49.956 18.655,49.974C18.952,49.994 19.25,49.998 19.548,49.999C19.733,50 19.923,50 20.11,49.999L33.295,49.999C33.947,50.024 34.6,49.974 35.241,49.849C35.884,49.708 36.473,49.385 36.937,48.918C37.399,48.441 37.716,47.844 37.852,47.195C37.975,46.543 38.024,45.88 38,45.217L38,6.783ZM24.032,3.449C24.031,3.654 23.873,3.828 23.669,3.848C23.514,3.859 23.365,3.782 23.285,3.649C23.217,3.524 23.217,3.373 23.285,3.249C23.365,3.116 23.514,3.039 23.669,3.05C23.873,3.07 24.031,3.244 24.032,3.449ZM24.8,2.585C24.8,2.512 24.86,2.452 24.933,2.452L28.017,2.452C28.09,2.452 28.15,2.512 28.15,2.585L28.15,2.606C28.15,2.679 28.09,2.739 28.017,2.739L24.933,2.739C24.86,2.739 24.8,2.679 24.8,2.606L24.8,2.585ZM37,6.785L37,45.239C37.022,45.819 36.981,46.401 36.878,46.973C36.783,47.441 36.556,47.873 36.224,48.217C35.893,48.55 35.472,48.779 35.012,48.876C34.446,48.981 33.87,49.023 33.295,49L21.035,49C20.626,49 19.954,49.001 19.552,49C19.219,48.999 18.919,48.992 18.636,48.97C18.388,48.954 18.141,48.916 17.9,48.855C17.456,48.744 17.053,48.509 16.738,48.177C16.42,47.832 16.205,47.405 16.116,46.944C16.018,46.374 15.979,45.795 16,45.218L16,7.273C16,7.019 15.998,6.754 16.005,6.501C16.006,6.331 16.009,6.164 16.015,6C16.021,5.646 16.063,5.294 16.141,4.949C16.254,4.463 16.511,4.022 16.88,3.685C17.069,3.515 17.284,3.378 17.517,3.277C17.742,3.182 17.978,3.115 18.219,3.078C18.513,3.033 18.81,3.009 19.107,3.006C19.291,3.001 19.504,3.001 19.709,3L21.939,3C22,2.998 22.06,3.001 22.12,3.01C22.179,3.019 22.234,3.045 22.278,3.086C22.322,3.127 22.35,3.182 22.358,3.242C22.369,3.314 22.378,3.553 22.403,3.694C22.426,3.827 22.471,3.955 22.538,4.072C22.644,4.257 22.797,4.412 22.982,4.519C23.126,4.601 23.285,4.653 23.45,4.672C23.616,4.688 23.783,4.694 23.95,4.688L29.052,4.688C29.218,4.694 29.385,4.688 29.552,4.672C29.716,4.653 29.875,4.601 30.019,4.519C30.204,4.412 30.358,4.257 30.464,4.072C30.53,3.955 30.576,3.827 30.599,3.694C30.617,3.56 30.627,3.424 30.63,3.288C30.628,3.21 30.663,3.135 30.724,3.086C30.767,3.046 30.822,3.019 30.88,3.01C30.94,3.001 31,2.998 31.061,3.001L33.448,3.001C34.003,2.979 34.558,3.028 35.1,3.146C35.544,3.257 35.947,3.492 36.263,3.824C36.58,4.169 36.795,4.596 36.884,5.057C36.982,5.627 37.021,6.206 37,6.785ZM15.279,49.545C15.266,49.53 15.255,49.514 15.242,49.5C15.1,49.343 14.969,49.176 14.851,49L4.156,49C3.658,49.02 3.159,48.976 2.671,48.87C2.281,48.772 1.928,48.564 1.652,48.272C1.371,47.965 1.182,47.586 1.104,47.177C1.016,46.659 0.981,46.134 1,45.609L1,10.376C0.977,9.823 1.019,9.269 1.127,8.726C1.225,8.296 1.452,7.905 1.776,7.606C1.942,7.457 2.131,7.336 2.335,7.247C2.534,7.163 2.742,7.103 2.955,7.071C3.219,7.03 3.486,7.008 3.753,7.005C3.935,7.001 4.149,7 4.351,7L6.617,7C6.672,6.998 6.727,7 6.782,7.008C6.893,7.023 6.981,7.11 6.998,7.22C7.007,7.275 7.012,7.33 7.011,7.385C7.011,7.509 7.021,7.633 7.039,7.755C7.06,7.876 7.102,7.993 7.163,8.1C7.26,8.269 7.4,8.41 7.568,8.508C7.7,8.583 7.845,8.63 7.996,8.648C8.147,8.663 8.299,8.668 8.451,8.662L13.549,8.662C13.699,8.667 13.85,8.663 14,8.648L14,7.273C14,7.017 13.999,6.757 14.002,6.501C14.003,6.337 14.007,6.171 14.013,6.001L4.666,6.001L4.351,6C4.14,6 3.918,6.001 3.727,6.006C3.413,6.01 3.1,6.036 2.79,6.084C2.496,6.13 2.209,6.213 1.936,6.33C1.632,6.462 1.351,6.642 1.105,6.864C0.633,7.296 0.303,7.861 0.157,8.483C0.027,9.111 -0.025,9.751 -0,10.392L0,45.609C-0.02,46.205 0.022,46.801 0.126,47.388C0.243,47.973 0.517,48.515 0.92,48.954C1.324,49.384 1.842,49.69 2.414,49.836C2.984,49.965 3.568,50.02 4.152,50C4.321,50.001 4.495,50.001 4.666,50L15.784,50C15.604,49.862 15.435,49.71 15.279,49.545ZM9.341,6.511C9.341,6.44 9.4,6.381 9.471,6.381L12.53,6.381C12.601,6.381 12.66,6.44 12.66,6.511L12.66,6.531C12.66,6.603 12.601,6.661 12.53,6.661L9.471,6.661C9.399,6.661 9.341,6.603 9.341,6.531L9.341,6.511ZM7.77,7.344C7.852,7.208 8.004,7.128 8.163,7.14C8.374,7.159 8.537,7.338 8.537,7.549C8.537,7.761 8.374,7.939 8.163,7.959C8.004,7.97 7.852,7.891 7.77,7.754C7.7,7.627 7.701,7.472 7.77,7.344Z" style="fill:rgb(245,245,247);fill-rule:nonzero;"/>
</svg>
